<?xml version="1.0" encoding="utf-8"?>
<!-- Generator: Adobe Illustrator 24.0.1, SVG Export Plug-In . SVG Version: 6.00 Build 0)  -->
<svg version="1.1" id="Слой_1" xmlns="http://www.w3.org/2000/svg" xmlns:xlink="http://www.w3.org/1999/xlink" x="0px" y="0px"
	 viewBox="0 0 401.7 111.4" style="enable-background:new 0 0 401.7 111.4;" xml:space="preserve">
<style type="text/css">
	.st0{fill:#3858A5;}
	.st1{font-family:'ActayWide-Bold';}
	.st2{font-size:38.5292px;}
	.st3{font-size:9.8596px;}
</style>
<path class="st0" d="M15.6,88.1c1.5-1.6,3.1-3.1,4.6-4.7c3.1,0,6.2,0,9.3,0c1.1,0,3.6-0.2,6-1.9c1.7-1.2,2.6-2.7,3.3-3.8
	c1.7-2.7,2.1-5.3,2.3-7c0.2-3.1,0.4-6.2,0.6-9.4L55,48l1-1c-0.2,7.9-0.4,15.7-0.6,23.6c0,1.1-0.3,2.8-1.1,4.8c-1.5,4-4,6.6-5.7,8.1
	c2.1-0.5,3.7-1.3,4.7-1.9c1-0.6,3.9-2.6,5.7-6.4c0.6-1.3,0.9-2.5,1.1-3.3C60.5,61.9,60.7,52,61,42l14.5-14.5c-0.1,14-0.2,28-0.3,42
	c0,1.7-0.8,4.9-2.8,8.4c-1.5,2.7-3.4,4.5-4.5,5.6c2.2-0.6,3.8-1.4,4.9-2c1.7-1,4.3-2.5,5.8-5.6c0.7-1.4,0.9-3.2,1.1-4.1
	c0,0,0.2-1.3,0.3-2.7c0.1-2.6,0.1-20.6,0-45.3c4.7-4.7,9.5-9.5,14.2-14.2v59c0,1.5-0.1,3.2-0.6,5c-2.3,9.1-10.7,13.7-13.1,14.9
	L15.6,88.1z"/>
<text transform="matrix(1 0 0 1 105.7001 67.4805)" class="st1 st2">ПРОАНАЛИЗ</text>
<g>
	<text transform="matrix(1 0 0 1 108.5213 84.1127)" class="st0 st1 st3">ТОЧНОСТЬ     ПРОЗРАЧНОСТЬ     ЭФФЕКТИВНОСТЬ</text>
</g>
<circle class="st0" cx="174.3" cy="81.1" r="1.7"/>
<circle class="st0" cx="276.6" cy="81.1" r="1.7"/>
</svg>
